PathFileType	4	(X/Y/Z)	OpenSim_Sub04_CSStiffKnee_Accel.trc
DataRate	CameraRate	NumFrames	NumMarkers	Units	OrigDataRate	OrigDataStartFrame	OrigNumFrames
100	100	27	8	m	100	927	7413
Frame#	Time	torso_imu_offset_imu	pelvis_imu_offset_imu	tibia_r_imu_offset_imu	femur_r_imu_offset_imu	tibia_l_imu_offset_imu	femur_l_imu_offset_imu	toes_r_imu_offset_imu	toes_l_imu_offset_imu
				X1	Y1	Z1	X2	Y2	Z2	X3	Y3	Z3	X4	Y4	Z4	X5	Y5	Z5	X6	Y6	Z6	X7	Y7	Z7	X8		Y8	Z8	

927	9.26000000	-9.07112696	-0.82336861	9.07048792	8.27224255	1.43848622	5.76169450	18.44178163	-4.98810978	4.26697526	10.03847167	-6.07209594	1.74148550	12.17116750	-15.10211001	3.18409777	13.14289602	-2.09977695	-1.17618485	5.93318520	-3.76162643	13.54451050	8.07613704	2.51293785	12.75636108
928	9.27000000	-8.67504057	-1.21574261	9.20931406	9.17858931	0.94459123	5.87948060	18.50651140	-3.59560740	4.36115160	10.62609057	-5.89990151	2.78205604	7.41962688	-5.05910406	0.83996476	14.68866192	-5.60530113	-3.66612337	8.32334683	-3.82057914	14.65800693	3.81938797	4.19172499	12.34577342
929	9.28000000	-8.05490213	-1.44812995	9.08182740	10.54035403	0.33595673	5.51606526	17.45333206	-0.79347524	2.95197952	10.97393893	-5.19074832	4.05445835	5.70349390	-5.10746154	1.17414907	13.93902617	-8.31450907	-6.09422101	9.46617996	-6.17140394	14.68302482	5.41676444	1.20761799	11.46753814
930	9.29000000	-7.35783810	-1.64856301	8.80839893	11.71448777	-0.22567105	5.14273341	15.80850679	1.87371921	0.35157330	11.41303194	-4.14332681	4.85360219	6.24756139	-8.63194194	1.57554259	12.18183040	-8.34413235	-6.88282306	12.01584718	-6.88571503	15.25779703	6.85473457	0.66068674	11.04768746
931	9.30000000	-7.05832507	-1.86202982	8.66271475	12.04562433	-0.77172236	4.85510928	14.35061720	3.99199535	-1.49408187	11.51413217	-3.08008518	4.83616735	9.56875855	-7.47775831	-1.06432385	10.93405886	-5.65631305	-5.36257381	9.77179344	-6.80725594	15.06777562	6.20051202	1.63322701	10.59796903
932	9.31000000	-7.41105378	-2.06600327	8.75628030	11.71569589	-1.27729231	4.50917269	13.02677293	5.70154078	-1.60211098	12.87264756	-1.61661154	4.24629585	11.80437431	-4.30755172	-1.54281199	8.91278429	-2.09602314	-3.93452448	8.55679015	-5.88868155	14.96332933	5.89268180	3.28437391	10.55835405
933	9.32000000	-8.01927699	-2.21305122	9.08368120	10.99918283	-1.76690693	4.22435130	11.20723050	7.99251425	-0.75062801	13.30799940	0.18319859	3.21321922	11.59716925	-1.61870818	-1.70097925	7.53360757	0.16408173	-3.47535633	11.97601413	-5.18221727	8.99672320	5.04557720	4.18273141	10.98830298
934	9.33000000	-8.50857866	-2.26085096	9.51494939	10.31427420	-2.04846562	4.07506441	8.49761108	11.20065260	-1.28081941	12.24044173	2.12943307	2.74835612	10.31241425	-0.60679029	-2.65905071	7.62598851	-0.18118151	-2.46138202	4.20174876	-2.18676617	19.28252630	5.23223995	4.09067874	10.70495515
935	9.34000000	-8.74668030	-2.31605699	9.86650051	10.23818649	-2.18904304	4.35263219	5.46356161	13.39572414	-2.25132365	11.93192245	3.54663877	2.31823051	9.59164867	-2.69033010	-2.60927471	8.58234234	-1.58528539	-2.24912997	2.15221848	-8.59645359	24.00118938	5.38507766	4.13398122	10.39454002
936	9.35000000	-8.83064646	-2.27858373	10.32025141	10.95622881	-2.35226362	5.00644887	4.59637980	10.84248316	2.38033977	12.62210936	3.22890267	-0.07043556	9.41855502	-5.05942739	-2.69369210	9.74558680	-1.49077219	-3.29305578	-6.60018869	-12.30813730	16.32497550	5.16065585	3.89479898	10.67657852
937	9.36000000	-8.89852630	-2.10399633	10.57087119	11.80309002	-2.13228743	4.85804514	6.63712513	5.12392292	3.78260253	11.74941260	1.31966579	-2.43425030	9.82279895	-5.16365457	-2.46440505	10.07836232	-0.12745323	-3.48682661	-5.16850674	-6.32943192	18.89153437	4.80440058	3.65200987	10.95881268
938	9.37000000	-8.25023555	-1.83580402	10.35943595	11.85675692	-1.56792903	4.35586093	6.76288140	1.52857197	0.26921465	13.35552057	-1.31935605	-2.11392102	10.54134588	-3.77122362	-1.63558160	9.87360934	1.35241587	-3.41671495	-3.69870819	-6.33450938	18.86856299	4.97494527	3.46856134	10.75176960
939	9.38000000	-7.27129211	-1.40666614	9.96158303	11.40018159	-0.92949641	4.24822385	4.33171789	0.87899079	0.13239227	11.43161802	-4.09275554	-0.05213691	10.64549424	-2.05213864	-0.86143930	9.53002092	1.90433069	-3.05198417	-7.95203895	-6.66988854	15.94472547	5.20266204	3.01185731	10.67971929
940	9.39000000	-6.90356500	-1.03619155	9.56810483	10.80170345	-0.34934711	4.24904684	3.22739414	1.29013627	1.53383718	9.09291247	-5.99199222	1.80359024	10.46126049	-1.22595222	-0.06279241	9.41859168	1.49856060	-2.29743720	-5.54816445	-3.80179577	15.26862700	5.31710934	2.75329407	10.71236764
941	9.40000000	-6.84880634	-0.80406621	9.27848983	9.94747559	-0.07588695	4.17476801	3.36946140	2.20248529	1.02437917	9.71259262	-6.95592871	2.70215508	9.94000710	-1.37205944	0.39069677	9.43760536	1.06405868	-2.01596577	-4.35479026	-2.07583600	14.54974863	5.01895704	2.63544279	10.87345197
942	9.41000000	-6.64012389	-0.60279378	8.97263649	9.08777363	0.07997615	4.08952736	3.66449954	3.71640986	-0.03824084	9.27342689	-6.97947549	3.29984433	9.23667755	-1.84781170	0.46709298	9.36417488	0.92903919	-2.04972234	-3.19291209	-1.27361872	13.54668216	5.11440466	2.50780000	10.72822208
943	9.42000000	-6.33492559	-0.53511233	8.73659491	8.38604241	0.31801074	4.06805682	4.15551705	5.15898422	-0.31364498	8.28424198	-6.16449557	3.70761755	8.95218885	-1.94690388	0.55272696	9.20091050	0.67051174	-2.07484847	-1.44744640	-0.87079433	12.71999712	5.65179530	2.56426228	10.22904121
944	9.43000000	-6.15151821	-0.65704786	8.57388987	7.85996450	0.50657020	3.97844932	4.81206776	6.02818852	-0.04329530	7.22338964	-5.24121126	3.60427248	8.98989205	-1.93265187	0.46038895	9.13139403	0.45561363	-2.29311899	1.25431060	-0.93212946	12.46953657	5.67406853	2.58274722	10.12267771
945	9.44000000	-6.19792390	-0.79153358	8.43774842	7.50480070	0.60270343	3.76950340	5.53005079	6.84873043	0.19725265	6.35702053	-4.67381406	3.18966537	9.22600387	-2.42881243	0.08256328	9.00084902	-0.02398058	-2.35707244	4.31626629	-0.38795443	12.27408283	5.39864894	2.63382412	10.34950848
946	9.45000000	-6.34529799	-0.93025804	8.40965425	7.35619099	0.51479058	3.58298015	5.94884813	7.60891759	0.13125105	5.83888060	-4.29735222	2.92216517	9.40273549	-3.13125404	-0.22721306	8.66707250	-0.53024892	-1.98392057	6.26584771	0.36560779	11.66442155	5.06631627	2.64830253	10.59096731
947	9.46000000	-6.45441636	-0.97893207	8.42604289	7.45214568	0.22710753	3.32945195	6.38177350	7.87784977	0.27428850	5.57174676	-3.88345788	3.06753808	9.47183845	-3.39024377	-0.29088217	8.59528027	-0.76548058	-1.82220464	8.32160764	0.34990079	11.16232334	5.30170267	2.63806407	10.47109627
948	9.47000000	-6.51556495	-0.88378274	8.39962824	7.65699413	-0.19565240	2.98046589	7.20665632	7.89175341	0.59903766	5.28533727	-3.44621198	3.34283920	9.37962060	-3.26352193	-0.37912365	8.77680431	-1.00478858	-1.82475561	11.29182796	0.17088600	11.13802755	5.59442236	2.63723696	10.38623882
949	9.48000000	-6.55291563	-0.65696301	8.29678369	7.88857991	-0.75770141	2.71034354	7.95638603	7.66092762	0.81648524	5.02132740	-3.13852949	3.45965761	9.32061440	-3.26290982	-0.41532927	9.06452378	-0.93749661	-2.53681315	13.03830452	0.10495962	10.73803068	5.90156258	2.51014535	10.22250608
950	9.49000000	-6.60252770	-0.48584617	8.23509878	8.28604028	-1.35497563	2.61075154	8.27470613	7.01847336	1.28499425	5.05164134	-2.99981976	3.35315747	9.43127873	-3.28213683	-0.53954381	9.26624175	-0.55747585	-3.30967958	13.19197076	-0.55352430	9.55520823	5.59661371	2.63218362	10.45244773
951	9.50000000	-6.68084993	-0.47063535	8.26836019	8.69982153	-1.80743999	2.60677522	8.32669527	5.97132523	1.90819022	5.15195340	-2.92653065	3.25570411	9.59131604	-3.38727417	-0.43489599	9.30277618	-0.16917013	-3.43810219	13.78226951	-1.71802600	8.27335723	5.31977995	2.69629561	10.66177955
952	9.51000000	-6.83223343	-0.56782852	8.32064765	9.17329170	-2.17012594	2.61907411	8.27704039	4.55269651	2.02843895	5.21295863	-2.77817351	3.30089324	9.65513293	-3.26103149	-0.23648886	9.34855040	0.09854138	-3.27126571	14.67015675	-2.79215948	7.28389969	5.67398686	2.72241206	10.45303575
953	9.52000000	-6.99306897	-0.74071928	8.46021596	9.36637765	-2.40694232	2.64593312	8.16025360	3.02350897	1.45717133	5.55548645	-2.64134825	3.62560893	9.62994898	-2.88401972	-0.00636578	9.45399878	0.13619140	-2.85680364	14.07258770	-3.03026591	6.22377123	5.65571046	2.50419877	10.44151782
